<?xml version="1.0" encoding="UTF-8" standalone="no"?>
<!-- Created with Inkscape (http://www.inkscape.org/) -->

<svg
    width="143.08534mm"
    height="165.25848mm"
    viewBox="0 0 143.08534 165.25848"
    version="1.1"
    id="svg1"
    xml:space="preserve"
    inkscape:version="1.3.2 (091e20e, 2023-11-25, custom)"
    sodipodi:docname="doctr_klipper.svg"
    xmlns:inkscape="http://www.inkscape.org/namespaces/inkscape"
    xmlns:sodipodi="http://sodipodi.sourceforge.net/DTD/sodipodi-0.dtd"
    xmlns="http://www.w3.org/2000/svg"
    xmlns:svg="http://www.w3.org/2000/svg"><sodipodi:namedview
     id="namedview1"
     pagecolor="#ffffff"
     bordercolor="#000000"
     borderopacity="0.25"
     inkscape:showpageshadow="2"
     inkscape:pageopacity="0.0"
     inkscape:pagecheckerboard="0"
     inkscape:deskcolor="#d1d1d1"
     inkscape:document-units="mm"
     inkscape:zoom="0.56126601"
     inkscape:cx="179.05948"
     inkscape:cy="211.12983"
     inkscape:window-width="1920"
     inkscape:window-height="1129"
     inkscape:window-x="-8"
     inkscape:window-y="-8"
     inkscape:window-maximized="1"
     inkscape:current-layer="layer1" /><defs
    id="defs1"><inkscape:path-effect
       effect="fillet_chamfer"
       id="path-effect7"
       is_visible="true"
       lpeversion="1"
       nodesatellites_param="F,0,0,1,0,4.9010191,0,1 @ F,0,0,1,0,4.9010191,0,1 @ F,0,0,1,0,9.1116225,0,1 @ F,0,0,1,0,6.2248577,0,1 @ F,0,0,1,0,0.51757052,0,1 @ F,0,0,1,0,4.9010191,0,1 @ F,0,0,1,0,6.9550815,0,1"
       radius="0"
       unit="px"
       method="auto"
       mode="F"
       chamfer_steps="1"
       flexible="false"
       use_knot_distance="true"
       apply_no_radius="true"
       apply_with_radius="true"
       only_selected="false"
       hide_knots="false" /><inkscape:path-effect
    effect="fillet_chamfer"
    id="path-effect5"
    is_visible="true"
    lpeversion="1"
    nodesatellites_param="F,0,0,1,0,4.9010191,0,1 @ F,0,0,1,0,4.9010191,0,1 @ F,0,0,1,0,9.1116225,0,1 @ F,0,0,1,0,6.2248577,0,1 @ F,0,0,1,0,0.51757052,0,1 @ F,0,0,1,0,4.9010191,0,1 @ F,0,0,1,0,6.9550815,0,1"
    radius="0"
    unit="px"
    method="auto"
    mode="F"
    chamfer_steps="1"
    flexible="false"
    use_knot_distance="true"
    apply_no_radius="true"
    apply_with_radius="true"
    only_selected="false"
    hide_knots="false" /></defs><g
    inkscape:label="Calque 1"
    inkscape:groupmode="layer"
    id="layer1"
    transform="translate(-29.521743,-49.333332)"><rect
       style="fill:#000000;stroke:none;stroke-width:0.469;stroke-linecap:round;stroke-linejoin:round;paint-order:markers stroke fill"
       id="rect1"
       width="40.666668"
       height="151.66666"
       x="47.333336"
       y="49.333332"
       ry="8.333333" /><rect
    style="fill:#bc5fd3;stroke:none;stroke-width:0.401759;stroke-linecap:round;stroke-linejoin:round;paint-order:markers stroke fill"
    id="rect2"
    width="32.067242"
    height="141.14142"
    x="51.633049"
    y="53.595951"
    ry="7.755023" /><rect
    style="fill:#ffffff;stroke:none;stroke-width:0.469;stroke-linecap:round;stroke-linejoin:round;paint-order:markers stroke fill"
    id="rect4"
    width="6.6666665"
    height="92.333336"
    x="55.333336"
    y="94.666672"
    ry="3.3333333" /><path
    style="fill:#000000;stroke:none;stroke-width:0.469;stroke-linecap:round;stroke-linejoin:round;paint-order:markers stroke fill"
    d="m 91.619542,104.23412 -0.239087,24.86509 a 12.224543,12.224543 68.704247 0 0 3.304263,8.47685 l 50.084622,53.44226 a 8.02635,8.02635 178.23414 0 0 12.03994,-0.37119 l 14.22195,-17.18486 a 6.8629218,6.8629218 87.4018 0 0 -0.41802,-9.21203 L 126.0314,119.36721 a 0.55773822,0.55773822 88.053648 0 1 -0.0258,-0.75833 l 35.4512,-40.905233 a 4.9282183,4.9282183 86.07293 0 0 -0.476,-6.933922 L 140.23059,52.584113 a 6.827359,6.827359 175.70053 0 0 -9.71698,0.730533 L 94.828078,95.588274 a 13.606145,13.606145 110.36024 0 0 -3.208536,8.645846 z"
    id="path5"
    sodipodi:nodetypes="cccccccc"
    inkscape:path-effect="#path-effect5"
    inkscape:original-d="M 91.666665,99.333332 91.333332,134 151,197.66667 l 24,-29 L 125.66666,119 l 39,-45 L 135,48 Z"
    transform="translate(0,7.4083337)" /><path
    id="path6"
    style="fill:none;stroke:none;stroke-width:0.469;stroke-linecap:round;stroke-linejoin:round;paint-order:markers stroke fill"
    d="m 135.21862,58.318926 a 6.827359,6.827359 0 0 0 -4.70514,2.403987 L 94.82832,102.99683 a 13.606145,13.606145 0 0 0 -3.208589,8.6455 l -0.239262,24.86515 a 12.224543,12.224543 0 0 0 3.304191,8.477 l 50.0848,53.44221 a 8.02635,8.02635 0 0 0 12.03957,-0.37103 l 14.22239,-17.185 a 6.8629218,6.8629218 0 0 0 -0.41806,-9.21184 l -44.58178,-44.88305 a 0.55773822,0.55773822 0 0 1 -0.0258,-0.75861 l 35.45106,-40.905038 a 4.9282183,4.9282183 0 0 0 -0.47594,-6.933944 l -20.75015,-18.18597 a 6.827359,6.827359 0 0 0 -5.0121,-1.673282 z" /><path
    id="path7"
    style="fill:#bc5fd3;stroke:none;stroke-width:0.469;stroke-linecap:round;stroke-linejoin:round;paint-order:markers stroke fill"
    sodipodi:type="inkscape:offset"
    inkscape:radius="-4.9926209"
    inkscape:original="M 135.21875 50.910156 A 6.827359 6.827359 0 0 0 130.51367 53.314453 L 94.828125 95.587891 A 13.606145 13.606145 0 0 0 91.619141 104.23438 L 91.380859 129.09961 A 12.224543 12.224543 0 0 0 94.685547 137.57617 L 144.76953 191.01758 A 8.02635 8.02635 0 0 0 156.80859 190.64648 L 171.03125 173.46289 A 6.8629218 6.8629218 0 0 0 170.61328 164.25 L 126.03125 119.36719 A 0.55773822 0.55773822 0 0 1 126.00586 118.60938 L 161.45703 77.703125 A 4.9282183 4.9282183 0 0 0 160.98047 70.769531 L 140.23047 52.583984 A 6.827359 6.827359 0 0 0 135.21875 50.910156 z "
    d="m 135.59375,55.888672 c -0.48463,0.03645 -0.95214,0.275105 -1.26563,0.646484 L 98.642578,98.808594 c -1.280839,1.517146 -2.012175,3.489186 -2.03125,5.474606 l -0.238281,24.86328 c -0.01756,1.83823 0.69795,3.67436 1.955078,5.01563 l 50.083985,53.44141 c 1.17365,1.25214 3.45648,1.18142 4.55078,-0.14063 l 14.22266,-17.18359 c 0.58577,-0.70767 0.53416,-1.85805 -0.11328,-2.50977 a 4.9931202,4.9931202 0 0 1 -0.002,-0.002 l -44.58203,-44.88281 a 4.9931202,4.9931202 0 0 1 -0.004,-0.004 c -1.55902,-1.5731 -0.27718,0.32468 -1.1543,-1.70898 -0.87713,-2.03367 -0.37506,0.20179 -0.44922,-2.01172 -0.0742,-2.21352 -0.42459,0.0507 0.31445,-2.03711 0.73904,-2.08782 -0.41311,-0.10929 1.03711,-1.78321 L 157.64258,74.482422 136.93945,56.337891 c -0.36548,-0.320341 -0.86106,-0.485635 -1.3457,-0.449219 z"
    transform="translate(0,7.4083337)" /><rect
    style="fill:#ffffff;stroke:none;stroke-width:0.573819;stroke-linecap:round;stroke-linejoin:round;paint-order:markers stroke fill"
    id="rect8"
    width="5.049634"
    height="52.733559"
    x="-21.929258"
    y="171.12991"
    ry="2.4512355"
    transform="rotate(-42.936457)" /><circle
    style="fill:#ffffff;stroke:none;stroke-width:0.469;stroke-linecap:round;stroke-linejoin:round;paint-order:markers stroke fill"
    id="path8"
    cx="143.07127"
    cy="181.82791"
    r="3.5355339" /><g
    id="g17"
    transform="matrix(0.04838912,0,0,0.04838912,29.521798,79.571648)"><g
         id="g3">
	<g
        id="g2">
		<path
            class="st0"
            d="m 1535.5,2770.3 c -174.5,0.6 -327.9,-55.7 -455.8,-167.3 -100.1,-87.4 -184,-208.4 -249.4,-359.7 -57.1,-132.2 -89.4,-264.1 -106.4,-351.4 -18.5,-94.8 -23.5,-158.4 -23.7,-161.1 -2.4,-31.9 21.5,-59.8 53.4,-62.3 31.9,-2.5 59.8,21.5 62.3,53.4 0,0.6 4.9,61.3 22.4,150.5 16.1,81.7 46.4,204.8 99.6,327.2 131.5,302.6 332.4,455.5 597.2,454.6 274.4,-1 469.1,-144.4 578.6,-426.4 84.7,-218.1 84.8,-438.1 84.8,-440.3 -0.1,-32 25.7,-58.1 57.8,-58.2 0,0 0,0 0,0 32,-0.1 58.1,25.7 58.2,57.8 0,2.5 0.1,62.5 -11.2,151.7 -10.4,82.2 -33,206.3 -81.4,331.1 -126.8,326.2 -364.1,499.3 -686.4,500.4 z"
            id="path1" />
        <path
            d="m 1532.7,2790.3 c -178.4,0 -335.1,-57.9 -466.1,-172.3 C 964.2,2528.6 878.5,2405.2 812,2251.2 754.2,2117.3 721.5,1984 704.3,1895.7 c -18.7,-96 -23.8,-160.7 -24,-163.4 -1.6,-20.8 5,-40.9 18.6,-56.7 13.6,-15.8 32.5,-25.4 53.2,-27 20.8,-1.6 40.9,5 56.7,18.6 15.8,13.6 25.4,32.5 27,53.3 0,0.6 4.9,60.8 22.1,148.2 15.9,80.7 45.8,202.3 98.3,323.1 127.6,293.7 321.6,442.5 576.5,442.5 0.8,0 1.5,0 2.3,0 265.4,-0.9 453.8,-140.1 560,-413.7 83,-213.8 83.4,-430.8 83.4,-433 -0.2,-43 34.7,-78.1 77.7,-78.3 0.1,0 0.3,0 0.4,0 42.8,0 77.7,34.8 77.9,77.7 0,2.6 0.1,63.7 -11.3,154.3 -10.6,83.3 -33.5,209.1 -82.6,335.8 -64.4,166 -157.5,294.2 -276.7,381.1 -119.5,87.1 -263.5,131.6 -428.2,132.1 -1,0 -2,0 -2.9,0 z m 2.7,-40 0.1,20 -0.1,-20 c 313.4,-1.1 544.3,-169.7 667.8,-487.7 47.7,-122.9 70,-245.3 80.2,-326.3 11.2,-88 11,-146.6 11,-149.1 -0.1,-20.9 -17.1,-37.8 -38,-37.8 -0.1,0 -0.2,0 -0.2,0 -10.1,0 -19.6,4 -26.7,11.2 -7.1,7.2 -11.1,16.8 -11,26.9 0,2.2 0,225.8 -86.1,447.6 -55.9,143.9 -134.7,254.1 -234.2,327.5 -99.9,73.6 -222,111.2 -363,111.7 -0.8,0 -1.6,0 -2.4,0 -135.3,0 -255.9,-39.5 -358.4,-117.6 -102.3,-77.9 -188,-195.3 -254.8,-349 C 865.7,2083.6 835,1959 818.7,1876.4 801,1786.2 796,1724.2 795.9,1723.6 c -0.8,-10.2 -5.4,-19.4 -13.2,-26 -7.7,-6.6 -17.5,-9.8 -27.6,-9 -10.1,0.8 -19.3,5.4 -25.9,13.1 -6.6,7.7 -9.8,17.5 -9,27.6 0.2,2.6 5.1,65 23.4,158.8 16.8,86.3 48.8,216.7 105.2,347.3 64.2,148.5 146.3,267.1 244.2,352.6 123.5,107.8 271.4,162.4 439.8,162.4 0.8,-0.1 1.7,-0.1 2.6,-0.1 z"
            id="path2" />
	</g>
</g><g
    id="g5">
	<g
        id="g4">
		<path
            class="st1"
            d="m 776.2,1787.5 c -53.6,0.2 -107.4,-11.1 -159.9,-33.5 -49.2,-21 -97.8,-51.9 -144.2,-91.9 -44,-37.9 -86.6,-84.4 -126.7,-138.1 C 306.7,1472.1 270,1412.9 236.6,1348.3 100.1,1085 21.2,742.9 20,409.7 19.8,351 44.5,283.2 87.7,223.6 136.2,156.7 203.8,104.3 283.1,72 c 29.7,-12.1 63.5,2.2 75.6,31.8 12.1,29.7 -2.2,63.5 -31.8,75.6 -74.9,30.5 -120.3,77.9 -145.2,112.3 -28.7,39.6 -45.8,83.6 -45.6,117.7 1.1,315.3 75.3,638.1 203.5,885.6 124.2,239.8 283.2,377 436.3,376.5 75.4,-0.3 149.6,-33.3 220.8,-98.3 71.9,-65.7 137.2,-160.1 194.1,-280.6 115.6,-244.9 181.2,-569.1 180.1,-889.5 -0.1,-25.3 -20.6,-72.9 -77.9,-130.6 -49.6,-50 -113.1,-93 -165.9,-112.2 -30.1,-10.9 -45.7,-44.2 -34.7,-74.3 10.9,-30.1 44.2,-45.7 74.3,-34.7 68.9,25 146.9,77.2 208.7,139.5 32.3,32.5 58.2,65.7 77,98.6 22.7,39.7 34.3,77.8 34.5,113.3 0.6,169.4 -16.1,338.3 -49.7,502.1 -33.2,161.6 -80.7,308.7 -141.5,437.4 -135.3,286.4 -319.8,444.6 -519.5,445.3 z"
            id="path3" />
        <path
            d="m 774.9,1807.5 c -55.8,0 -111.8,-11.8 -166.4,-35.1 -51.1,-21.8 -101.4,-53.8 -149.4,-95.2 C 414,1638.3 370.3,1590.8 329.4,1535.9 290,1483.1 252.8,1423 218.8,1357.4 80.9,1091.5 1.2,746 0,409.8 -0.2,347 25.9,274.8 71.6,211.8 122.3,141.9 192.8,87.1 275.6,53.4 c 19.3,-7.9 40.5,-7.7 59.7,0.3 19.2,8.1 34.1,23.2 42,42.5 16.2,39.8 -3,85.4 -42.8,101.7 -70.5,28.7 -113.2,73.2 -136.6,105.5 -25.9,35.7 -41.9,76.3 -41.8,105.9 1.1,312.3 74.4,631.7 201.2,876.5 59.8,115.4 129.9,209.6 202.6,272.4 71.7,61.9 144,93.3 215,93.3 0.3,0 0.6,0 0.8,0 70.2,-0.2 140,-31.6 207.4,-93.1 70,-63.9 133.7,-156.2 189.5,-274.4 114.3,-242.3 179.3,-563.4 178.2,-880.9 -0.1,-16.4 -15.3,-59.4 -72.1,-116.6 -47.6,-48 -108.4,-89.2 -158.5,-107.4 -40.4,-14.7 -61.4,-59.5 -46.7,-99.9 14.7,-40.4 59.5,-61.4 99.9,-46.7 71.5,26 152.3,79.9 216.1,144.2 33.5,33.8 60.4,68.4 80.2,102.8 24.5,42.8 37,84.2 37.1,123.1 0.6,170.8 -16.3,341.1 -50.2,506.2 -33.5,163.2 -81.6,311.8 -143,441.9 -138.7,293.9 -329.6,456.1 -537.4,456.8 v 0 c -0.4,0 -0.9,0 -1.3,0 z M 305,87.6 c -4.9,0 -9.7,0.9 -14.3,2.8 -75.9,30.9 -140.4,81 -186.7,144.8 -40.9,56.4 -64.2,119.9 -64,174.5 1.2,330.1 79.2,668.9 214.2,929.5 33,63.7 69,121.9 107.1,172.9 39.2,52.5 80.8,97.9 123.7,134.9 44.9,38.7 91.7,68.5 139,88.7 49.6,21.1 100.4,31.9 150.8,31.9 0.4,0 0.8,0 1.2,0 191.6,-0.7 369.6,-154.8 501.4,-433.9 60,-127.2 107.1,-272.8 140,-432.9 33.3,-162.4 49.9,-330 49.3,-498 -0.1,-31.9 -10.8,-66.7 -31.8,-103.4 -18,-31.4 -42.8,-63.2 -73.9,-94.5 C 1301.3,144.5 1226,94.1 1159.8,70 c -19.7,-7.2 -41.5,3.1 -48.7,22.7 -7.2,19.6 3.1,41.5 22.7,48.7 55.4,20.1 121.8,64.9 173.3,116.9 52.3,52.7 83.5,106.8 83.7,144.6 1.1,323.3 -65.2,650.7 -182,898.1 -58,122.9 -124.9,219.4 -198.7,286.8 -74.9,68.4 -153.7,103.2 -234.2,103.5 -0.3,0 -0.6,0 -1,0 -40.3,0 -81.5,-8.9 -122.3,-26.5 -40.1,-17.3 -80,-43 -118.8,-76.5 -77.7,-67 -149,-162.7 -212,-284.3 C 192.1,1053.9 117.1,727.8 116,409.4 c -0.1,-38.2 18.4,-86.6 49.5,-129.5 26.5,-36.5 74.7,-86.8 153.9,-119.1 19.4,-7.9 28.8,-30.1 20.8,-49.5 -3.8,-9.4 -11.1,-16.7 -20.4,-20.7 -4.8,-2 -9.8,-3 -14.8,-3 z"
            id="path4" />
	</g>
</g><g
    id="g6">
	<circle
        class="st0"
        cx="305"
        cy="125.7"
        r="95.699997"
        id="circle5" />
    <path
        d="m 305,241.4 c -63.6,0 -115.5,-51.6 -115.7,-115.3 -0.1,-30.9 11.8,-60 33.6,-81.9 21.8,-21.9 50.8,-34.2 81.7,-34.3 0.1,0 0.3,0 0.4,0 63.6,0 115.5,51.6 115.7,115.3 0.2,63.8 -51.5,115.9 -115.3,116.1 -0.1,0.1 -0.3,0.1 -0.4,0.1 z m 0,-191.5 c -0.1,0 -0.2,0 -0.3,0 -20.2,0.1 -39.2,8 -53.5,22.4 -14.3,14.4 -22.1,33.4 -22,53.6 0.1,20.2 8,39.2 22.4,53.5 14.3,14.2 33.2,22 53.3,22 0.1,0 0.2,0 0.3,0 41.8,-0.1 75.6,-34.2 75.5,-76 C 380.6,83.7 346.6,49.9 305,49.9 Z"
        id="path5-1" />
</g><g
    id="g7">
	<circle
        class="st0"
        cx="1146.8"
        cy="115.7"
        r="95.699997"
        id="circle6" />
    <path
        d="m 1146.8,231.4 c -63.6,0 -115.5,-51.6 -115.7,-115.3 -0.1,-30.9 11.8,-60 33.6,-81.9 21.8,-21.9 50.8,-34.1 81.7,-34.2 0.1,0 0.3,0 0.4,0 30.8,0 59.7,11.9 81.5,33.6 21.9,21.8 34.1,50.8 34.2,81.7 0.1,30.9 -11.8,60 -33.6,81.9 -21.8,21.9 -50.8,34.1 -81.7,34.2 -0.1,0 -0.2,0 -0.4,0 z M 1146.9,40 c -0.1,0 -0.2,0 -0.3,0 -20.2,0.1 -39.2,8 -53.5,22.4 -14.3,14.4 -22.1,33.4 -22,53.6 0.1,41.7 34.1,75.4 75.7,75.5 0.1,0 0.2,0 0.3,0 20.2,-0.1 39.2,-8 53.5,-22.4 14.3,-14.4 22.1,-33.4 22,-53.6 -0.1,-20.2 -8,-39.2 -22.4,-53.5 -14.3,-14.2 -33.2,-22 -53.3,-22 z"
        id="path6-7" />
</g><g
    id="g9">
	<g
        id="g8">
		<path
            class="st0"
            d="m 759.7,1826.9 c -0.5,0 -1.1,0 -1.6,0 -181.8,0.1 -346,-99.6 -474.7,-288.3 C 192.7,1405.5 150.5,1273 148.8,1267.5 l 191.8,-60.2 -0.1,-0.2 c 0.4,1.1 36.5,113.3 111.5,222 90.2,130.7 193.2,197 305.9,196.9 0.3,0 0.7,0 1,0 128.6,-0.4 240,-71.8 331.3,-212.2 73,-112.2 104.7,-227.4 105,-228.6 14.2,-53.7 69.2,-85.7 122.9,-71.5 53.7,14.2 85.7,69.2 71.5,122.9 -1.6,5.9 -39.2,146 -130.8,286.8 -128.8,197.9 -301.4,302.8 -499.1,303.5 z"
            id="path7-0" />
        <path
            d="m 757.8,1846.9 c -188.7,0 -358.4,-102.7 -490.9,-297.1 -92.3,-135.5 -135.4,-270.7 -137.2,-276.4 -1.6,-5.1 -1.1,-10.5 1.4,-15.2 2.5,-4.7 6.7,-8.2 11.7,-9.8 L 331.9,1189 c 0.8,-0.4 1.7,-0.7 2.5,-1 10.5,-3.3 21.8,2.5 25.1,13 0,0 0,0 0,0 v 0 c 0.8,2.5 36.5,111.7 108.9,216.6 86.2,124.9 183.5,188.3 289.3,188.3 0.1,0 0.1,0 0.2,0 h 0.9 c 121.4,-0.4 227.2,-68.8 314.6,-203.1 71.1,-109.3 102.1,-221.7 102.4,-222.9 17,-64.2 83.1,-102.6 147.3,-85.6 64.2,17 102.7,83.1 85.7,147.3 -1.6,6 -40.1,149.2 -133.4,292.6 -132.6,203.8 -311,311.9 -515.8,312.7 H 758 c 0,0 -0.1,0 -0.2,0 z M 174.3,1280.4 c 14.8,41.4 55.4,143.9 125.6,246.9 124.7,182.9 283,279.6 457.8,279.6 0.1,0 0.2,0 0.3,0 h 1.5 c 0,0 0,0 0,0 190.7,-0.7 357.5,-102.5 482.4,-294.5 89.8,-138.1 126.7,-275.2 128.2,-281 11.3,-42.9 -14.3,-87.1 -57.2,-98.4 -42.9,-11.3 -87.1,14.3 -98.4,57.2 -0.3,1.1 -32.7,119.4 -107.5,234.4 -47,72.2 -100,127.6 -157.7,164.5 -58.5,37.4 -122.5,56.5 -190.3,56.8 h -1.1 c -0.1,0 -0.1,0 -0.2,0 -119.7,0 -228.1,-69.1 -322.2,-205.5 -58.2,-84.4 -93.6,-171 -107.4,-208.3 z"
            id="path8-4" />
	</g>
</g><g
    id="g10">
	<circle
        class="st1"
        cx="2255.6001"
        cy="1479.4"
        r="324.39999"
        id="circle9" />
    <path
        d="m 2255.5,1823.8 c -46,0 -90.8,-8.9 -132.9,-26.6 -41.1,-17.2 -78,-41.9 -109.7,-73.4 -31.7,-31.5 -56.7,-68.3 -74.2,-109.2 -18.1,-42.4 -27.4,-87.5 -27.5,-134 -0.2,-46.5 8.8,-91.6 26.6,-134.2 17.2,-41.1 41.9,-78 73.4,-109.7 31.5,-31.7 68.3,-56.7 109.2,-74.2 42.4,-18.1 87.5,-27.4 134,-27.5 46.5,-0.1 91.6,8.8 134.2,26.6 41.1,17.2 78,41.9 109.7,73.4 31.7,31.5 56.7,68.3 74.2,109.2 18.1,42.4 27.4,87.5 27.5,134 v 0 c 0.2,46.5 -8.8,91.6 -26.6,134.2 -17.2,41.1 -41.9,78 -73.4,109.7 -31.5,31.7 -68.3,56.7 -109.2,74.2 -42.4,18.1 -87.5,27.4 -134,27.5 -0.4,0 -0.8,0 -1.3,0 z m 0.1,-648.8 c -0.4,0 -0.7,0 -1.1,0 -167.8,0.6 -303.9,137.6 -303.3,305.4 0.3,81.3 32.2,157.6 89.9,214.9 57.4,57 133.6,88.4 214.4,88.4 0.4,0 0.7,0 1.1,0 81.3,-0.3 157.6,-32.2 214.9,-89.9 57.3,-57.7 88.7,-134.2 88.4,-215.5 v 0 c -0.3,-81.3 -32.2,-157.6 -89.9,-214.9 -57.4,-57 -133.5,-88.4 -214.4,-88.4 z"
        id="path9" />
</g><g
    id="g11">
	<circle
        class="st0"
        cx="2253.3999"
        cy="1479.4"
        r="182.3"
        id="circle10" />
    <path
        d="m 2253.4,1681.7 c -53.8,0 -104.3,-20.8 -142.5,-58.8 -38.3,-38.1 -59.6,-88.8 -59.7,-142.8 -0.4,-111.5 90,-202.6 201.6,-203 0.2,0 0.5,0 0.7,0 111.2,0 201.9,90.3 202.3,201.6 0.4,111.5 -90,202.6 -201.6,203 -0.3,0 -0.6,0 -0.8,0 z m 0,-364.6 c -0.2,0 -0.4,0 -0.6,0 -89.5,0.3 -162,73.4 -161.7,162.9 0.3,89.3 73.1,161.7 162.3,161.7 0.2,0 0.4,0 0.6,0 89.5,-0.3 162,-73.4 161.7,-162.9 -0.3,-89.2 -73.1,-161.7 -162.3,-161.7 z"
        id="path10" />
</g><g
    id="g12">
	<path
        class="st2"
        d="m 92.8,736.3 c -5.9,0 -11.1,-4.2 -12.3,-10.1 -17,-88.3 -27,-279.4 -27.4,-287.4 -0.4,-6.9 4.9,-12.8 11.8,-13.1 6.9,-0.4 12.8,4.9 13.1,11.8 0.1,2 10.4,197.4 27,284 1.3,6.8 -3.1,13.3 -9.9,14.6 -0.8,0.1 -1.6,0.2 -2.3,0.2 z"
        id="path11" />
</g><g
    id="g13">
	<path
        class="st2"
        d="m 148.8,1008.4 c -5.7,0 -10.8,-3.9 -12.2,-9.6 l -48,-204.1 c -1.6,-6.7 2.6,-13.4 9.3,-15 6.7,-1.6 13.4,2.6 15,9.3 l 48,204.1 c 1.6,6.7 -2.6,13.4 -9.3,15 -0.9,0.2 -1.9,0.3 -2.8,0.3 z"
        id="path12" />
</g><g
    id="g14">
	<path
        class="st2"
        d="m 1349.6,977.8 c -0.9,0 -1.9,-0.1 -2.8,-0.3 -6.7,-1.6 -10.9,-8.3 -9.3,-15 0.3,-1.3 30,-129.5 39.2,-186.3 9.2,-56.8 21.3,-181.6 21.4,-182.9 0.7,-6.9 6.8,-11.9 13.6,-11.2 6.9,0.7 11.9,6.8 11.2,13.6 -0.5,5.2 -12.3,126.9 -21.6,184.5 -9.3,57.6 -38.3,182.6 -39.5,187.9 -1.4,5.8 -6.6,9.7 -12.2,9.7 z"
        id="path13" />
</g><g
    id="g15">
	<path
        class="st2"
        d="m 2006.1,1605.4 c -5.3,0 -10.2,-3.3 -11.9,-8.6 -1.3,-3.8 -30.6,-94.6 -20.9,-159.3 17.6,-117.6 74.5,-156.2 76.9,-157.8 5.8,-3.8 13.5,-2.2 17.3,3.6 3.8,5.7 2.2,13.5 -3.5,17.3 -0.3,0.2 -12.7,8.9 -26.9,30.1 -13.3,19.9 -30.8,55.2 -39.1,110.5 -8.8,58.8 19.6,147 19.9,147.8 2.1,6.6 -1.4,13.6 -8,15.8 -1.2,0.4 -2.6,0.6 -3.8,0.6 z"
        id="path14" />
</g><g
    id="g16">
	<path
        class="st2"
        d="m 2108.1,1255.7 c -4,0 -7.9,-1.9 -10.3,-5.4 -3.9,-5.7 -2.4,-13.5 3.3,-17.4 4.4,-3 44,-29.7 69.9,-33.4 6.8,-1 13.2,3.8 14.1,10.6 1,6.8 -3.8,13.2 -10.6,14.1 -17.2,2.5 -48.7,22 -59.3,29.3 -2.2,1.5 -4.7,2.2 -7.1,2.2 z"
        id="path15" />
</g></g></g><style
    type="text/css"
    id="style1">
	.st0{fill:#607D8B;}
    .st1{fill:#9E9E9E;}
    .st2{fill:#FFFFFF;}
</style></svg>
